<svg xmlns="http://www.w3.org/2000/svg" viewBox="0 0 800 500"><rect width="800" height="500" rx="40" fill="#eff6ff"/><circle cx="120" cy="130" r="80" fill="#dbeafe"/><circle cx="680" cy="370" r="110" fill="#bfdbfe"/><path d="M200 150h400l38 240H162l38-240Z" fill="#fff"/><path d="M172 208h456" stroke="#2563eb" stroke-width="22"/><path d="M250 142c8-48 44-78 88-78s80 30 88 78M462 142c8-48 44-78 88-78s80 30 88 78" fill="none" stroke="#60a5fa" stroke-width="22" stroke-linecap="round"/><path d="M260 252h86v104h-86zM394 252h86v104h-86zM528 252h54v104h-54z" fill="#bfdbfe"/><circle cx="620" cy="402" r="28" fill="#2563eb"/></svg>