<svg width="1200" height="520" viewBox="0 0 1200 520" fill="none" xmlns="http://www.w3.org/2000/svg">
  <rect width="1200" height="520" rx="36" fill="#0F172A"/>
  <rect x="28" y="28" width="1144" height="464" rx="32" fill="url(#bg)"/>
  <rect x="88" y="108" width="402" height="108" rx="24" fill="#FFFFFF" fill-opacity="0.95"/>
  <rect x="88" y="238" width="314" height="84" rx="22" fill="#082F49" fill-opacity="0.9"/>
  <rect x="88" y="342" width="216" height="64" rx="18" fill="#E0F2FE"/>
  <rect x="672" y="100" width="412" height="304" rx="30" fill="#FFFFFF" fill-opacity="0.12" stroke="#FFFFFF" stroke-opacity="0.18" stroke-width="2"/>
  <rect x="712" y="136" width="148" height="112" rx="24" fill="#F8FAFC"/>
  <rect x="878" y="136" width="166" height="112" rx="24" fill="#FEF3C7"/>
  <rect x="712" y="272" width="332" height="92" rx="24" fill="#0EA5E9" fill-opacity="0.2"/>
  <rect x="118" y="140" width="210" height="18" rx="9" fill="#0F172A"/>
  <rect x="118" y="172" width="258" height="14" rx="7" fill="#64748B"/>
  <rect x="118" y="266" width="166" height="16" rx="8" fill="#FFFFFF"/>
  <rect x="118" y="294" width="210" height="12" rx="6" fill="#BFDBFE"/>
  <rect x="120" y="364" width="110" height="16" rx="8" fill="#0369A1"/>
  <text x="86" y="78" fill="#E2E8F0" font-size="30" font-family="Arial, sans-serif" font-weight="700">Supplier, distributor, dan stok usaha</text>
  <defs>
    <linearGradient id="bg" x1="600" y1="28" x2="600" y2="492" gradientUnits="userSpaceOnUse">
      <stop stop-color="#1D4ED8"/>
      <stop offset="1" stop-color="#0F766E"/>
    </linearGradient>
  </defs>
</svg>

